<svg width="19" height="19" viewBox="0 0 19 19" fill="none" xmlns="http://www.w3.org/2000/svg">
<path d="M18.332 1.21893C18.7188 1.3244 19 1.64081 19 2.02753C19 11.0627 11.6875 18.34 2.6875 18.34C2.26562 18.34 1.94922 18.0939 1.84375 17.7072L1 14.051C0.929688 13.6642 1.10547 13.2424 1.49219 13.0666L5.42969 11.3791C5.78125 11.2385 6.16797 11.3439 6.41406 11.6252L8.17188 13.7697C10.9141 12.4689 13.1289 10.2189 14.3945 7.54706L12.25 5.78925C11.9688 5.54315 11.8633 5.15643 12.0039 4.80487L13.6914 0.867371C13.8672 0.480652 14.2891 0.269714 14.6758 0.375183L18.332 1.21893Z" fill="#00A85A"/>
</svg>
