<svg width="102" height="18" viewBox="0 0 102 18" fill="none" xmlns="http://www.w3.org/2000/svg">
<path d="M8.09375 1.67236C8.46875 0.922363 9.53125 0.953613 9.875 1.67236L11.9375 5.82861L16.5 6.48486C17.3125 6.60986 17.625 7.60986 17.0312 8.20361L13.75 11.4224L14.5312 15.9536C14.6562 16.7661 13.7812 17.3911 13.0625 17.0161L9 14.8599L4.90625 17.0161C4.1875 17.3911 3.3125 16.7661 3.4375 15.9536L4.21875 11.4224L0.9375 8.20361C0.34375 7.60986 0.65625 6.60986 1.46875 6.48486L6.0625 5.82861L8.09375 1.67236ZM29.0938 1.67236C29.4688 0.922363 30.5312 0.953613 30.875 1.67236L32.9375 5.82861L37.5 6.48486C38.3125 6.60986 38.625 7.60986 38.0312 8.20361L34.75 11.4224L35.5312 15.9536C35.6562 16.7661 34.7812 17.3911 34.0625 17.0161L30 14.8599L25.9062 17.0161C25.1875 17.3911 24.3125 16.7661 24.4375 15.9536L25.2188 11.4224L21.9375 8.20361C21.3438 7.60986 21.6562 6.60986 22.4688 6.48486L27.0625 5.82861L29.0938 1.67236ZM50.0938 1.67236C50.4688 0.922363 51.5312 0.953613 51.875 1.67236L53.9375 5.82861L58.5 6.48486C59.3125 6.60986 59.625 7.60986 59.0312 8.20361L55.75 11.4224L56.5312 15.9536C56.6562 16.7661 55.7812 17.3911 55.0625 17.0161L51 14.8599L46.9062 17.0161C46.1875 17.3911 45.3125 16.7661 45.4375 15.9536L46.2188 11.4224L42.9375 8.20361C42.3438 7.60986 42.6562 6.60986 43.4688 6.48486L48.0625 5.82861L50.0938 1.67236ZM71.0938 1.67236C71.4688 0.922363 72.5312 0.953613 72.875 1.67236L74.9375 5.82861L79.5 6.48486C80.3125 6.60986 80.625 7.60986 80.0312 8.20361L76.75 11.4224L77.5312 15.9536C77.6562 16.7661 76.7812 17.3911 76.0625 17.0161L72 14.8599L67.9062 17.0161C67.1875 17.3911 66.3125 16.7661 66.4375 15.9536L67.2188 11.4224L63.9375 8.20361C63.3438 7.60986 63.6562 6.60986 64.4688 6.48486L69.0625 5.82861L71.0938 1.67236ZM99.875 6.48486C100.688 6.60986 101.031 7.60986 100.438 8.20361L97.125 11.4224L97.9062 15.9536C98 16.6099 97.5 17.1099 96.9062 17.1099C96.75 17.1099 96.5938 17.0786 96.4375 17.0161L92.3438 14.8599L88.2812 17.0161C88.125 17.0786 87.9688 17.1099 87.8125 17.1099C87.2188 17.1099 86.6875 16.6099 86.8125 15.9536L87.5938 11.4224L84.2812 8.20361C83.6875 7.60986 84.0312 6.60986 84.8438 6.48486L89.4062 5.82861L91.4688 1.67236C91.6562 1.29736 92 1.10986 92.3438 1.10986C92.7188 1.10986 93.0625 1.29736 93.25 1.67236L95.3125 5.82861L99.875 6.48486ZM96.0625 10.3286L98.6562 7.82861L95.0938 7.29736L94.3125 7.20361L93.9688 6.48486L92.375 3.26611L92.3438 13.1724L93.0625 13.5474L96.25 15.2036L95.625 11.6724L95.5 10.8911L96.0625 10.3286Z" fill="#FAA432"/>
</svg>
