<svg width="20" height="21" viewBox="0 0 20 21" fill="none" xmlns="http://www.w3.org/2000/svg">
<path d="M16.7877 10.8645L10.4938 17.159C10.3961 17.2567 10.2632 17.3119 10.125 17.3119H3.38408C2.91961 17.3119 2.68676 16.7503 3.01543 16.4222C4.94033 14.4955 9.32448 10.1094 9.32448 10.1094C9.32448 10.1094 4.93972 5.72467 3.01543 3.79794C2.68661 3.46988 2.91961 2.9082 3.38408 2.9082H10.125C10.2634 2.9082 10.3961 2.96344 10.4938 3.06109L13.3502 5.91754L16.7877 9.35443C17.2043 9.7716 17.2043 10.4473 16.7877 10.8645Z" fill="#FAA432"/>
<path d="M12.8456 10.8645L6.55166 17.159C6.454 17.2567 6.32125 17.3119 6.183 17.3119H3.38408C2.91961 17.3119 2.68676 16.7503 3.01543 16.4222C4.94033 14.4955 9.32448 10.1094 9.32448 10.1094C9.32448 10.1094 4.93972 5.72467 3.01543 3.79794C2.68661 3.46988 2.91961 2.9082 3.38408 2.9082H6.183C6.32125 2.9082 6.45415 2.96344 6.55181 3.06109L12.8458 9.35428C13.2623 9.7716 13.2623 10.4473 12.8456 10.8645Z" fill="#00A85A"/>
<path d="M12.8456 10.8645L6.55167 17.159C6.45401 17.2567 6.32126 17.3119 6.18301 17.3119H4.54315C4.6814 17.3119 4.81415 17.2567 4.9118 17.159L11.3878 10.6826C11.8044 10.2653 11.8044 9.95349 11.3878 9.53631L4.9118 3.06109C4.81415 2.96344 4.6814 2.9082 4.54315 2.9082H6.18301C6.32126 2.9082 6.45401 2.96344 6.55167 3.06109L12.8456 9.35443C13.2623 9.7716 13.2623 10.4473 12.8456 10.8645Z" fill="#FFA816"/>
<path d="M16.9948 9.14721L13.5574 5.71032L10.701 2.85388C10.5493 2.70221 10.3393 2.61523 10.1249 2.61523H3.38407C3.04823 2.61523 2.75983 2.8081 2.63136 3.11847C2.50318 3.42852 2.57093 3.76834 2.80805 4.005C4.47172 5.6708 8.01725 9.21649 8.91019 10.1094C8.01939 11.0007 4.48301 14.5386 2.80836 16.2148C2.57093 16.4519 2.50318 16.7918 2.63136 17.1017C2.75983 17.412 3.04823 17.6049 3.38407 17.6049H10.1249C10.3393 17.6049 10.5493 17.5179 10.701 17.3662L16.9949 11.0717C17.5247 10.5412 17.5247 9.67791 16.9948 9.14721ZM16.5803 10.6576L10.2865 16.952C10.244 16.9945 10.1851 17.019 10.1249 17.019H3.38407C3.24232 17.019 3.18647 16.9108 3.17289 16.8777C3.15916 16.8447 3.12238 16.7293 3.22263 16.6292C5.14753 14.7025 9.53169 10.3165 9.53169 10.3165C9.64613 10.2021 9.64613 10.0167 9.53169 9.90222C9.48774 9.85843 5.12495 5.49548 3.22233 3.59057C3.12238 3.49078 3.15916 3.37542 3.17289 3.34231C3.18647 3.3092 3.24232 3.20117 3.38407 3.20117H10.1249C10.1851 3.20117 10.244 3.22558 10.2865 3.26815L13.1431 6.12475L16.5803 9.56134C16.8821 9.86361 16.8821 10.3553 16.5803 10.6576Z" fill="white"/>
</svg>
