<svg width="50" height="51" viewBox="0 0 50 51" fill="none" xmlns="http://www.w3.org/2000/svg">
<path d="M9.84334 6.52002C9.84334 7.07557 10.0378 7.52002 10.4267 7.85335C10.8156 8.18668 11.2878 8.35335 11.8433 8.35335C12.3989 8.35335 12.8711 8.18668 13.26 7.85335C13.6489 7.52002 13.8433 7.07557 13.8433 6.52002C13.8433 5.96446 13.6489 5.49224 13.26 5.10335C12.8711 4.71446 12.3989 4.52002 11.8433 4.52002C11.2878 4.52002 10.8156 4.71446 10.4267 5.10335C10.0378 5.49224 9.84334 5.96446 9.84334 6.52002ZM36.1767 6.52002C36.1767 7.07557 36.3711 7.52002 36.76 7.85335C37.1489 8.18668 37.6211 8.35335 38.1767 8.35335C38.7322 8.35335 39.2045 8.18668 39.5933 7.85335C39.9822 7.52002 40.1767 7.07557 40.1767 6.52002C40.1767 5.96446 39.9822 5.49224 39.5933 5.10335C39.2045 4.71446 38.7322 4.52002 38.1767 4.52002C37.6211 4.52002 37.1489 4.71446 36.76 5.10335C36.3711 5.49224 36.1767 5.96446 36.1767 6.52002ZM47.01 8.02002C49.01 5.90891 50.01 3.40891 50.01 0.52002H47.01C47.01 2.74224 46.26 4.60335 44.76 6.10335C43.26 7.60335 41.3989 8.35335 39.1767 8.35335H30.8433V11.3534H39.1767C40.8433 11.3534 42.4545 10.9645 44.01 10.1867L42.1767 40.02L43.8433 45.1867C37.8433 46.7422 31.5656 47.52 25.01 47.52C18.4545 47.52 12.1767 46.7422 6.17668 45.1867L7.84334 40.02L6.01001 10.1867C7.56557 10.9645 9.17668 11.3534 10.8433 11.3534H19.1767V8.35335H10.8433C8.62112 8.35335 6.76001 7.60335 5.26001 6.10335C3.76001 4.60335 3.01001 2.74224 3.01001 0.52002H0.0100098C0.0100098 3.40891 1.01001 5.90891 3.01001 8.02002L4.84334 39.52L2.51001 47.02L4.01001 47.52C5.56557 48.0756 7.62112 48.5756 10.1767 49.02C15.0656 50.02 20.01 50.52 25.01 50.52C30.01 50.52 34.9545 50.02 39.8433 49.02C42.3989 48.5756 44.4545 48.0756 46.01 47.52L47.51 47.02L45.1767 39.52L47.01 8.02002ZM36.1767 25.52C36.1767 23.52 35.6767 21.6589 34.6767 19.9367C33.6767 18.2145 32.3156 16.8534 30.5933 15.8534C28.8711 14.8534 27.01 14.3534 25.01 14.3534C23.01 14.3534 21.1489 14.8534 19.4267 15.8534C17.7045 16.8534 16.3433 18.2145 15.3433 19.9367C14.3433 21.6589 13.8433 23.52 13.8433 25.52C13.8433 26.4089 13.51 27.2145 12.8433 27.9367C12.1767 28.6589 11.3433 29.02 10.3433 29.02V31.8534C12.1211 31.8534 13.6211 31.2422 14.8433 30.02C16.0656 28.7978 16.6767 27.2978 16.6767 25.52C16.6767 23.1867 17.4822 21.2145 19.0933 19.6034C20.7045 17.9922 22.6767 17.1867 25.01 17.1867C27.3433 17.1867 29.3156 17.9922 30.9267 19.6034C32.5378 21.2145 33.3433 23.1867 33.3433 25.52C33.3433 27.2978 33.9545 28.7978 35.1767 30.02C36.3989 31.2422 37.8989 31.8534 39.6767 31.8534V29.02C38.6767 29.02 37.8433 28.6589 37.1767 27.9367C36.51 27.2145 36.1767 26.4089 36.1767 25.52ZM30.8433 30.02V27.02H26.51V20.1867H23.51V27.02H19.1767V30.02H23.51V35.8534H19.1767V38.8534H23.51V41.6867H26.51V38.8534H30.8433V35.8534H26.51V30.02H30.8433Z" fill="#FEE431"/>
</svg>
