<svg width="50" height="51" viewBox="0 0 50 51" fill="none" xmlns="http://www.w3.org/2000/svg">
<path d="M40.51 17.9967C39.1767 16.6634 37.6211 15.6634 35.8433 14.9967C37.1767 14.1079 38.2322 12.9134 39.01 11.4134C39.7878 9.91341 40.1767 8.33008 40.1767 6.66341V0.330078H33.8433C31.9545 0.330078 30.2322 0.802299 28.6767 1.74674C27.1211 2.69119 25.8711 3.94119 24.9267 5.49674C23.9822 7.0523 23.51 8.77452 23.51 10.6634V11.9967L19.3433 7.66341L17.3433 9.83008L21.8433 14.3301C20.9545 14.219 20.0656 14.1634 19.1767 14.1634C17.2878 14.1634 15.5378 14.4967 13.9267 15.1634C12.3156 15.8301 10.8433 16.7745 9.51001 17.9967C6.3989 18.7745 4.03779 19.8023 2.42668 21.0801C0.815565 22.3579 0.0100098 23.7745 0.0100098 25.3301V34.1634C0.0100098 35.3856 0.51001 36.4967 1.51001 37.4967C2.84334 38.8301 4.95445 39.9967 7.84334 40.9967L9.17668 41.4967C9.84334 42.4967 10.6211 43.3856 11.51 44.1634L15.8433 48.4967C17.0656 49.719 18.51 50.3301 20.1767 50.3301C21.8433 50.3301 23.2878 49.719 24.51 48.4967C24.6211 48.3856 24.7878 48.3301 25.01 48.3301C25.2322 48.3301 25.3989 48.3856 25.51 48.4967C26.7322 49.719 28.1767 50.3301 29.8433 50.3301C31.51 50.3301 32.9545 49.719 34.1767 48.4967L38.51 44.1634C39.3989 43.3856 40.1767 42.4967 40.8433 41.4967L42.1767 40.9967C45.0656 39.9967 47.1767 38.8301 48.51 37.4967C49.51 36.4967 50.01 35.3856 50.01 34.1634V25.3301C50.01 23.7745 49.2045 22.3579 47.5933 21.0801C45.9822 19.8023 43.6211 18.7745 40.51 17.9967ZM26.51 10.6634C26.51 8.5523 27.2322 6.8023 28.6767 5.41341C30.1211 4.02452 31.8433 3.33008 33.8433 3.33008H37.1767V6.66341C37.1767 8.66341 36.4545 10.3856 35.01 11.8301C33.5656 13.2745 31.8433 13.9967 29.8433 13.9967H26.51V10.6634ZM19.1767 16.9967C20.9545 16.9967 22.6767 17.4412 24.3433 18.3301L25.01 18.6634L25.6767 18.3301C27.3433 17.4412 29.0656 16.9967 30.8433 16.9967C32.9545 16.9967 34.8433 17.5245 36.51 18.5801C38.1767 19.6356 39.5378 21.0245 40.5933 22.7467C41.6489 24.469 42.1767 26.3301 42.1767 28.3301L42.01 29.1634L41.1767 29.4967C36.7322 30.9412 31.3433 31.6634 25.01 31.6634C18.6767 31.6634 13.2878 30.9412 8.84334 29.4967L8.01001 29.1634L7.84334 28.3301C7.84334 26.3301 8.37112 24.469 9.42668 22.7467C10.4822 21.0245 11.8433 19.6356 13.51 18.5801C15.1767 17.5245 17.0656 16.9967 19.1767 16.9967ZM6.34334 22.1634C5.56557 23.9412 5.12112 25.8301 5.01001 27.8301C3.67668 26.9412 3.01001 26.1079 3.01001 25.3301C3.01001 24.8856 3.28779 24.3856 3.84334 23.8301C4.3989 23.2745 5.23223 22.719 6.34334 22.1634ZM32.01 46.4967C31.4545 47.0523 30.7322 47.3301 29.8433 47.3301C28.9545 47.3301 28.1767 46.9967 27.51 46.3301C26.8433 45.6634 26.01 45.3301 25.01 45.3301C24.01 45.3301 23.1767 45.6634 22.51 46.3301C21.8433 46.9967 21.0656 47.3301 20.1767 47.3301C19.2878 47.3301 18.5656 47.0523 18.01 46.4967L14.01 42.4967C17.4545 43.0523 21.1211 43.3301 25.01 43.3301C28.8989 43.3301 32.5656 43.0523 36.01 42.4967L32.01 46.4967ZM47.01 34.1634C47.01 34.719 46.5378 35.3856 45.5933 36.1634C44.6489 36.9412 43.1767 37.6634 41.1767 38.3301C36.7322 39.7745 31.3433 40.4967 25.01 40.4967C18.6767 40.4967 13.2878 39.7745 8.84334 38.3301C6.84334 37.6634 5.37112 36.9412 4.42668 36.1634C3.48223 35.3856 3.01001 34.719 3.01001 34.1634V29.8301C3.78779 30.4967 4.78779 31.0523 6.01001 31.4967V34.9967H8.84334V32.4967C9.84334 32.8301 10.8433 33.1079 11.8433 33.3301V36.4967H14.6767V33.8301L17.6767 34.1634V37.1634H20.6767V34.4967L23.51 34.6634V37.4967H26.51V34.6634L29.3433 34.4967V37.1634H32.3433V34.1634L35.3433 33.8301V36.4967H38.1767V33.3301C39.1767 33.1079 40.1767 32.8301 41.1767 32.4967V34.9967H44.01V31.4967C45.2322 31.0523 46.2322 30.4967 47.01 29.8301V34.1634ZM45.01 27.8301C44.8989 25.8301 44.4545 23.9412 43.6767 22.1634C44.7878 22.719 45.6211 23.2745 46.1767 23.8301C46.7322 24.3856 47.01 24.8856 47.01 25.3301C47.01 26.1079 46.3433 26.9412 45.01 27.8301Z" fill="#FEE431"/>
</svg>
