<svg width="42" height="51" viewBox="0 0 42 51" fill="none" xmlns="http://www.w3.org/2000/svg">
<path d="M24.8433 22.9967C24.6211 22.9967 24.4267 23.0801 24.26 23.2467C24.0933 23.4134 24.01 23.6356 24.01 23.9134C24.01 24.1912 24.0933 24.4412 24.26 24.6634C24.4267 24.8856 24.6489 24.9967 24.9267 24.9967C25.2045 24.9967 25.4267 24.8856 25.5933 24.6634C25.76 24.4412 25.8433 24.1912 25.8433 23.9134C25.8433 23.6356 25.76 23.4134 25.5933 23.2467C25.4267 23.0801 25.1767 22.9967 24.8433 22.9967ZM21.01 17.1634C20.7878 17.1634 20.5656 17.2467 20.3433 17.4134C20.1211 17.5801 20.01 17.8023 20.01 18.0801C20.01 18.3579 20.1211 18.5801 20.3433 18.7467C20.5656 18.9134 20.7878 18.9967 21.01 18.9967C21.2322 18.9967 21.4545 18.9134 21.6767 18.7467C21.8989 18.5801 22.01 18.3579 22.01 18.0801C22.01 17.8023 21.8989 17.5801 21.6767 17.4134C21.4545 17.2467 21.2322 17.1634 21.01 17.1634ZM9.34334 42.4967C9.01001 42.4967 8.76001 42.6079 8.59334 42.8301C8.42668 43.0523 8.34334 43.2745 8.34334 43.4967C8.34334 43.719 8.42668 43.9412 8.59334 44.1634C8.76001 44.3856 8.98223 44.4967 9.26001 44.4967C9.53779 44.4967 9.78779 44.3856 10.01 44.1634C10.2322 43.9412 10.3433 43.719 10.3433 43.4967C10.3433 43.2745 10.2322 43.0523 10.01 42.8301C9.78779 42.6079 9.56557 42.4967 9.34334 42.4967ZM40.3433 40.1634L27.8433 17.8301V5.99674C28.3989 5.77452 28.8711 5.41341 29.26 4.91341C29.6489 4.41341 29.8433 3.8023 29.8433 3.08008C29.8433 2.35785 29.5378 1.71897 28.9267 1.16341C28.3156 0.607853 27.6211 0.330078 26.8433 0.330078H15.1767C14.3989 0.330078 13.7045 0.607853 13.0933 1.16341C12.4822 1.71897 12.1767 2.35785 12.1767 3.08008C12.1767 3.8023 12.3711 4.41341 12.76 4.91341C13.1489 5.41341 13.6211 5.77452 14.1767 5.99674V17.8301L1.67668 40.1634C1.01001 41.2745 0.704456 42.4134 0.760011 43.5801C0.815567 44.7467 1.1489 45.8579 1.76001 46.9134C2.37112 47.969 3.17668 48.8023 4.17668 49.4134C5.17668 50.0245 6.28779 50.3301 7.51001 50.3301H34.51C35.7322 50.3301 36.8433 50.0245 37.8433 49.4134C38.8433 48.8023 39.6489 47.969 40.26 46.9134C40.8711 45.8579 41.2045 44.7467 41.26 43.5801C41.3156 42.4134 41.01 41.2745 40.3433 40.1634ZM16.01 18.6634C16.1211 18.4412 16.1767 18.2745 16.1767 18.1634V6.16341H17.1767C17.3989 6.16341 17.5933 6.08008 17.76 5.91341C17.9267 5.74674 18.01 5.52452 18.01 5.24674C18.01 4.96897 17.9267 4.71897 17.76 4.49674C17.5933 4.27452 17.3989 4.16341 17.1767 4.16341H15.1767C14.8433 4.16341 14.5933 4.08008 14.4267 3.91341C14.26 3.74674 14.1767 3.52452 14.1767 3.24674C14.1767 2.96897 14.26 2.74674 14.4267 2.58008C14.5933 2.41341 14.8433 2.33008 15.1767 2.33008H26.8433C27.1767 2.33008 27.4267 2.41341 27.5933 2.58008C27.76 2.74674 27.8433 2.96897 27.8433 3.24674C27.8433 3.52452 27.76 3.74674 27.5933 3.91341C27.4267 4.08008 27.1767 4.16341 26.8433 4.16341H24.8433C24.6211 4.16341 24.4267 4.27452 24.26 4.49674C24.0933 4.71897 24.01 4.96897 24.01 5.24674C24.01 5.52452 24.0933 5.74674 24.26 5.91341C24.4267 6.08008 24.6211 6.16341 24.8433 6.16341H25.8433V18.1634C25.8433 18.2745 25.8989 18.4412 26.01 18.6634L31.8433 28.8301C28.1767 28.4967 24.7322 29.1634 21.51 30.8301C19.51 31.9412 17.3711 32.5801 15.0933 32.7467C12.8156 32.9134 10.6211 32.6634 8.51001 31.9967L16.01 18.6634ZM38.6767 45.9967C38.2322 46.7745 37.6211 47.3579 36.8433 47.7467C36.0656 48.1356 35.2878 48.3301 34.51 48.3301H7.51001C6.73223 48.3301 5.95446 48.1356 5.17668 47.7467C4.3989 47.3579 3.78779 46.7745 3.34334 45.9967C2.8989 45.219 2.67668 44.3856 2.67668 43.4967C2.67668 42.6079 2.8989 41.8301 3.34334 41.1634L7.51001 33.6634C9.51001 34.4412 11.5656 34.8301 13.6767 34.8301H14.6767C17.3433 34.6079 19.9545 33.8856 22.51 32.6634C25.8433 30.8856 29.3433 30.3301 33.01 30.9967L38.6767 41.1634C39.1211 41.8301 39.3433 42.6079 39.3433 43.4967C39.3433 44.3856 39.1211 45.219 38.6767 45.9967ZM17.1767 22.9967C16.2878 22.9967 15.5656 23.2745 15.01 23.8301C14.4545 24.3856 14.1767 25.0801 14.1767 25.9134C14.1767 26.7467 14.4545 27.4412 15.01 27.9967C15.5656 28.5523 16.26 28.8301 17.0933 28.8301C17.9267 28.8301 18.6211 28.5523 19.1767 27.9967C19.7322 27.4412 20.01 26.7467 20.01 25.9134C20.01 25.0801 19.7322 24.3856 19.1767 23.8301C18.6211 23.2745 17.9545 22.9967 17.1767 22.9967ZM17.1767 26.8301C16.8433 26.8301 16.5933 26.7467 16.4267 26.5801C16.26 26.4134 16.1767 26.1912 16.1767 25.9134C16.1767 25.6356 16.26 25.4134 16.4267 25.2467C16.5933 25.0801 16.8156 24.9967 17.0933 24.9967C17.3711 24.9967 17.5933 25.0801 17.76 25.2467C17.9267 25.4134 18.01 25.6356 18.01 25.9134C18.01 26.1912 17.9267 26.4134 17.76 26.5801C17.5933 26.7467 17.3989 26.8301 17.1767 26.8301ZM32.6767 42.4967H13.1767C12.9545 42.4967 12.7322 42.6079 12.51 42.8301C12.2878 43.0523 12.1767 43.2745 12.1767 43.4967C12.1767 43.719 12.2878 43.9412 12.51 44.1634C12.7322 44.3856 12.9545 44.4967 13.1767 44.4967H32.6767C33.01 44.4967 33.26 44.3856 33.4267 44.1634C33.5933 43.9412 33.6767 43.719 33.6767 43.4967C33.6767 43.2745 33.5933 43.0523 33.4267 42.8301C33.26 42.6079 33.01 42.4967 32.6767 42.4967Z" fill="#FEE431"/>
</svg>
