<svg width="42" height="51" viewBox="0 0 42 51" fill="none" xmlns="http://www.w3.org/2000/svg">
<path d="M35.8433 21.6867C35.6211 21.5756 35.3989 21.4089 35.1767 21.1867L36.8433 5.35335C36.9545 4.02002 36.5656 2.88113 35.6767 1.93668C34.7878 0.992241 33.6767 0.52002 32.3433 0.52002H9.67668C8.34334 0.52002 7.23223 0.992241 6.34334 1.93668C5.45445 2.88113 5.06557 4.02002 5.17668 5.35335L6.84334 21.1867L6.17668 21.6867C4.17668 23.6867 2.6489 25.9645 1.59334 28.52C0.537788 31.0756 0.0100098 33.7422 0.0100098 36.52C0.0100098 38.9645 0.426676 41.3534 1.26001 43.6867C2.09334 46.02 3.28779 48.1311 4.84334 50.02L5.34334 50.52H36.6767L37.1767 50.02C38.7322 48.1311 39.9267 46.02 40.76 43.6867C41.5933 41.3534 42.01 38.9645 42.01 36.52C42.01 33.7422 41.4822 31.0756 40.4267 28.52C39.3711 25.9645 37.8433 23.6867 35.8433 21.6867ZM8.51001 3.85335C8.84334 3.63113 9.23223 3.52002 9.67668 3.52002H32.3433C32.7878 3.52002 33.1767 3.65891 33.51 3.93668C33.8433 4.21446 33.9545 4.57557 33.8433 5.02002L32.51 19.02C31.6211 18.4645 30.6767 17.9645 29.6767 17.52L30.8433 6.35335H11.1767L12.3433 17.52C11.3433 17.9645 10.3989 18.4645 9.51001 19.02L8.17668 5.02002C8.06557 4.57557 8.17668 4.18668 8.51001 3.85335ZM27.51 9.35335L26.8433 16.3534C24.9545 15.7978 23.01 15.52 21.01 15.52C19.01 15.52 17.0656 15.7978 15.1767 16.3534L14.51 9.35335H27.51ZM35.3433 47.52H6.67668C4.23223 44.2978 3.01001 40.6311 3.01001 36.52C3.01001 33.2978 3.81557 30.2978 5.42668 27.52C7.03779 24.7422 9.23223 22.5478 12.01 20.9367C14.7878 19.3256 17.7878 18.52 21.01 18.52C24.2322 18.52 27.2322 19.3256 30.01 20.9367C32.7878 22.5478 34.9822 24.7422 36.5933 27.52C38.2045 30.2978 39.01 33.2978 39.01 36.52C39.01 40.6311 37.7878 44.2978 35.3433 47.52ZM21.01 29.3534C19.3433 29.3534 17.9545 29.9367 16.8433 31.1034C15.7322 32.27 15.1767 33.6589 15.1767 35.27C15.1767 36.8811 15.7322 38.27 16.8433 39.4367C17.9545 40.6034 19.3433 41.1867 21.01 41.1867C22.6767 41.1867 24.0656 40.6034 25.1767 39.4367C26.2878 38.27 26.8433 36.8811 26.8433 35.27C26.8433 33.6589 26.2878 32.27 25.1767 31.1034C24.0656 29.9367 22.6767 29.3534 21.01 29.3534ZM21.01 38.1867C20.2322 38.1867 19.5378 37.9089 18.9267 37.3534C18.3156 36.7978 18.01 36.1034 18.01 35.27C18.01 34.4367 18.3156 33.7422 18.9267 33.1867C19.5378 32.6311 20.2322 32.3534 21.01 32.3534C21.7878 32.3534 22.4822 32.6311 23.0933 33.1867C23.7045 33.7422 24.01 34.4367 24.01 35.27C24.01 36.1034 23.7045 36.7978 23.0933 37.3534C22.4822 37.9089 21.7878 38.1867 21.01 38.1867Z" fill="#FEE431"/>
</svg>
